<?xml version="1.0" encoding="UTF-8" standalone="no"?>
<!-- Created with Inkscape (http://www.inkscape.org/) -->

<svg
   version="1.1"
   id="svg2"
   width="513.33331"
   height="305.33334"
   viewBox="0 0 513.33331 305.33334"
   xmlns="http://www.w3.org/2000/svg"
   xmlns:svg="http://www.w3.org/2000/svg">
  <defs
     id="defs6" />
  <g
     id="g8"
     transform="matrix(1.3333333,0,0,-1.3333333,0,305.33333)">
    <g
       id="g10"
       transform="matrix(0.125,0,0,-0.125,0,229)">
      <g
         id="g12"
         transform="matrix(4,0,0,4,-85.335403,-376.34094)">
        <path
           d="M 0,0 H 840 V 630 H 0 Z"
           style="fill:#ffffff;fill-opacity:1;fill-rule:nonzero;stroke:none"
           id="path14" />
      </g>
      <g
         id="g16"
         transform="matrix(4,0,0,4,-85.335403,-376.34094)">
        <path
           d="M 425.19278,513.41455 760,384.96124 V 300.62067 L 443.80722,94.585434 109,223.03874 v 84.34059 z"
           style="fill:#ffffff;fill-opacity:1;fill-rule:nonzero;stroke:none"
           id="path18" />
      </g>
      <g
         id="g20"
         transform="matrix(4,0,0,4,-85.335403,-376.34094)">
        <path
           d="M 502.45596,483.77148 186.26323,277.7363"
           style="fill:none;stroke:#262626;stroke-width:1;stroke-linecap:butt;stroke-linejoin:round;stroke-miterlimit:10;stroke-dasharray:none;stroke-opacity:0.14902"
           id="path22" />
      </g>
      <g
         id="g24"
         transform="matrix(4,0,0,4,-85.335403,-376.34094)">
        <path
           d="M 631.22797,434.36636 315.03525,228.33116"
           style="fill:none;stroke:#262626;stroke-width:1;stroke-linecap:butt;stroke-linejoin:round;stroke-miterlimit:10;stroke-dasharray:none;stroke-opacity:0.14902"
           id="path26" />
      </g>
      <g
         id="g28"
         transform="matrix(4,0,0,4,-85.335403,-376.34094)">
        <path
           d="M 760,384.96124 443.80725,178.92606"
           style="fill:none;stroke:#262626;stroke-width:1;stroke-linecap:butt;stroke-linejoin:round;stroke-miterlimit:10;stroke-dasharray:none;stroke-opacity:0.14902"
           id="path30" />
      </g>
      <g
         id="g32"
         transform="matrix(4,0,0,4,-85.335403,-376.34094)">
        <path
           d="M 186.26323,277.7363 V 193.39568"
           style="fill:none;stroke:#262626;stroke-width:1;stroke-linecap:butt;stroke-linejoin:round;stroke-miterlimit:10;stroke-dasharray:none;stroke-opacity:0.14902"
           id="path34" />
      </g>
      <g
         id="g36"
         transform="matrix(4,0,0,4,-85.335403,-376.34094)">
        <path
           d="M 315.03525,228.33116 V 143.99055"
           style="fill:none;stroke:#262626;stroke-width:1;stroke-linecap:butt;stroke-linejoin:round;stroke-miterlimit:10;stroke-dasharray:none;stroke-opacity:0.14902"
           id="path38" />
      </g>
      <g
         id="g40"
         transform="matrix(4,0,0,4,-85.335403,-376.34094)">
        <path
           d="M 443.80725,178.92606 V 94.585442"
           style="fill:none;stroke:#262626;stroke-width:1;stroke-linecap:butt;stroke-linejoin:round;stroke-miterlimit:10;stroke-dasharray:none;stroke-opacity:0.14902"
           id="path42" />
      </g>
      <g
         id="g44"
         transform="matrix(4,0,0,4,-85.335403,-376.34094)">
        <path
           d="M 710.59491,352.76825 375.78766,481.22156"
           style="fill:none;stroke:#262626;stroke-width:1;stroke-linecap:butt;stroke-linejoin:round;stroke-miterlimit:10;stroke-dasharray:none;stroke-opacity:0.14902"
           id="path46" />
      </g>
      <g
         id="g48"
         transform="matrix(4,0,0,4,-85.335403,-376.34094)">
        <path
           d="M 611.78467,288.38223 276.97742,416.83557"
           style="fill:none;stroke:#262626;stroke-width:1;stroke-linecap:butt;stroke-linejoin:round;stroke-miterlimit:10;stroke-dasharray:none;stroke-opacity:0.14902"
           id="path50" />
      </g>
      <g
         id="g52"
         transform="matrix(4,0,0,4,-85.335403,-376.34094)">
        <path
           d="M 512.97443,223.99625 178.16718,352.44955"
           style="fill:none;stroke:#262626;stroke-width:1;stroke-linecap:butt;stroke-linejoin:round;stroke-miterlimit:10;stroke-dasharray:none;stroke-opacity:0.14902"
           id="path54" />
      </g>
      <g
         id="g56"
         transform="matrix(4,0,0,4,-85.335403,-376.34094)">
        <path
           d="m 710.59491,268.42764 v 84.34061"
           style="fill:none;stroke:#262626;stroke-width:1;stroke-linecap:butt;stroke-linejoin:round;stroke-miterlimit:10;stroke-dasharray:none;stroke-opacity:0.14902"
           id="path58" />
      </g>
      <g
         id="g60"
         transform="matrix(4,0,0,4,-85.335403,-376.34094)">
        <path
           d="m 611.78467,204.04164 v 84.34059"
           style="fill:none;stroke:#262626;stroke-width:1;stroke-linecap:butt;stroke-linejoin:round;stroke-miterlimit:10;stroke-dasharray:none;stroke-opacity:0.14902"
           id="path62" />
      </g>
      <g
         id="g64"
         transform="matrix(4,0,0,4,-85.335403,-376.34094)">
        <path
           d="m 512.97443,139.65564 v 84.34061"
           style="fill:none;stroke:#262626;stroke-width:1;stroke-linecap:butt;stroke-linejoin:round;stroke-miterlimit:10;stroke-dasharray:none;stroke-opacity:0.14902"
           id="path66" />
      </g>
      <g
         id="g68"
         transform="matrix(4,0,0,4,-85.335403,-376.34094)">
        <path
           d="M 443.80725,178.92606 109.00002,307.37936"
           style="fill:none;stroke:#262626;stroke-width:1;stroke-linecap:butt;stroke-linejoin:round;stroke-miterlimit:10;stroke-dasharray:none;stroke-opacity:0.14902"
           id="path70" />
      </g>
      <g
         id="g72"
         transform="matrix(4,0,0,4,-85.335403,-376.34094)">
        <path
           d="M 443.80725,108.64221 109.00002,237.09552"
           style="fill:none;stroke:#262626;stroke-width:1;stroke-linecap:butt;stroke-linejoin:round;stroke-miterlimit:10;stroke-dasharray:none;stroke-opacity:0.14902"
           id="path74" />
      </g>
      <g
         id="g76"
         transform="matrix(4,0,0,4,-85.335403,-376.34094)">
        <path
           d="M 760,384.96124 443.80725,178.92606"
           style="fill:none;stroke:#262626;stroke-width:1;stroke-linecap:butt;stroke-linejoin:round;stroke-miterlimit:10;stroke-dasharray:none;stroke-opacity:0.14902"
           id="path78" />
      </g>
      <g
         id="g80"
         transform="matrix(4,0,0,4,-85.335403,-376.34094)">
        <path
           d="M 760,314.67743 443.80725,108.64221"
           style="fill:none;stroke:#262626;stroke-width:1;stroke-linecap:butt;stroke-linejoin:round;stroke-miterlimit:10;stroke-dasharray:none;stroke-opacity:0.14902"
           id="path82" />
      </g>
      <g
         id="g84"
         transform="matrix(4,0,0,4,738.76561,729.88586)">
        <path
           d="M 5,0 C 5,-2.7614238 2.7614238,-5 0,-5 -2.7614238,-5 -5,-2.7614238 -5,0 -5,2.7614238 -2.7614238,5 0,5 2.7614238,5 5,2.7614238 5,0 Z"
           style="fill:#dd5400;fill-opacity:1;fill-rule:nonzero;stroke:none"
           id="path86" />
      </g>
      <g
         id="g88"
         transform="matrix(4,0,0,4,738.76561,729.88586)">
        <path
           d="m 0,-4.5 c 2.4852814,0 4.5,2.0147186 4.5,4.5 V 0 C 4.5,2.4852814 2.4852814,4.5 0,4.5 -2.4852814,4.5 -4.5,2.4852814 -4.5,0 c 0,-2.4852814 2.0147186,-4.5 4.5,-4.5 z m 0,-1 c -3.0375661,0 -5.5,2.4624339 -5.5,5.5 0,3.0375661 2.4624339,5.5 5.5,5.5 C 3.0375661,5.5 5.5,3.0375661 5.5,0 V 0 C 5.5,-3.0375661 3.0375661,-5.5 0,-5.5 Z"
           style="fill:#dd5400;fill-opacity:1;fill-rule:nonzero;stroke:none"
           id="path90" />
      </g>
      <g
         id="g92">
        <g
           id="g94"
           transform="matrix(4,0,0,4,288.21339,812.48242)">
          <text
             xml:space="preserve"
             transform="translate(-15,9)"
             style="font-variant:normal;font-weight:normal;font-size:26px;font-family:Arial;-inkscape-font-specification:ArialMT;writing-mode:lr-tb;fill:#262626;fill-opacity:1;fill-rule:nonzero;stroke:none"
             id="text98"><tspan
               x="0"
               y="0"
               id="tspan96">1</tspan></text>
        </g>
      </g>
      <g
         id="g100"
         transform="matrix(4,0,0,4,556.69987,605.44714)">
        <path
           d="M 5,0 C 5,-2.7614238 2.7614238,-5 0,-5 -2.7614238,-5 -5,-2.7614238 -5,0 -5,2.7614238 -2.7614238,5 0,5 2.7614238,5 5,2.7614238 5,0 Z"
           style="fill:#dd5400;fill-opacity:1;fill-rule:nonzero;stroke:none"
           id="path102" />
      </g>
      <g
         id="g104"
         transform="matrix(4,0,0,4,556.69987,605.44714)">
        <path
           d="m 0,-4.5 c 2.4852814,0 4.5,2.0147186 4.5,4.5 V 0 C 4.5,2.4852814 2.4852814,4.5 0,4.5 -2.4852814,4.5 -4.5,2.4852814 -4.5,0 c 0,-2.4852814 2.0147186,-4.5 4.5,-4.5 z m 0,-1 c -3.0375661,0 -5.5,2.4624339 -5.5,5.5 0,3.0375661 2.4624339,5.5 5.5,5.5 C 3.0375661,5.5 5.5,3.0375661 5.5,0 V 0 C 5.5,-3.0375661 3.0375661,-5.5 0,-5.5 Z"
           style="fill:#dd5400;fill-opacity:1;fill-rule:nonzero;stroke:none"
           id="path106" />
      </g>
      <g
         id="g108"
         transform="matrix(4,0,0,4,-85.335403,-376.34094)">
        <path
           d="m 109.00002,307.37936 -7.90481,-5.15087"
           style="fill:none;stroke:#262626;stroke-width:1;stroke-linecap:square;stroke-linejoin:round;stroke-miterlimit:10;stroke-dasharray:none;stroke-opacity:1"
           id="path110" />
      </g>
      <g
         id="g112"
         transform="matrix(4,0,0,4,2361.8033,608.50684)">
        <path
           d="M 5,0 C 5,-2.7614238 2.7614238,-5 0,-5 -2.7614238,-5 -5,-2.7614238 -5,0 -5,2.7614238 -2.7614238,5 0,5 2.7614238,5 5,2.7614238 5,0 Z"
           style="fill:#dd5400;fill-opacity:1;fill-rule:nonzero;stroke:none"
           id="path114" />
      </g>
      <g
         id="g116"
         transform="matrix(4,0,0,4,2361.8033,608.50684)">
        <path
           d="m 0,-4.5 c 2.4852814,0 4.5,2.0147186 4.5,4.5 V 0 C 4.5,2.4852814 2.4852814,4.5 0,4.5 -2.4852814,4.5 -4.5,2.4852814 -4.5,0 c 0,-2.4852814 2.0147186,-4.5 4.5,-4.5 z m 0,-1 c -3.0375661,0 -5.5,2.4624339 -5.5,5.5 0,3.0375661 2.4624339,5.5 5.5,5.5 C 3.0375661,5.5 5.5,3.0375661 5.5,0 V 0 C 5.5,-3.0375661 3.0375661,-5.5 0,-5.5 Z"
           style="fill:#dd5400;fill-opacity:1;fill-rule:nonzero;stroke:none"
           id="path118" />
      </g>
      <g
         id="g120"
         transform="matrix(4,0,0,4,-85.335403,-376.34094)">
        <path
           d="M 425.19278,513.41455 109.00002,307.37936"
           style="fill:none;stroke:#262626;stroke-width:1;stroke-linecap:butt;stroke-linejoin:miter;stroke-miterlimit:10;stroke-dasharray:none;stroke-opacity:1"
           id="path122" />
      </g>
      <g
         id="g124"
         transform="matrix(4,0,0,4,-85.335403,-376.34094)">
        <path
           d="m 109.00002,307.37936 v -84.3406"
           style="fill:none;stroke:#262626;stroke-width:1;stroke-linecap:butt;stroke-linejoin:miter;stroke-miterlimit:10;stroke-dasharray:none;stroke-opacity:1"
           id="path126" />
      </g>
      <g
         id="g128">
        <g
           id="g130"
           transform="matrix(4,0,0,4,288.21339,531.34711)">
          <text
             xml:space="preserve"
             transform="translate(-37,9)"
             style="font-variant:normal;font-weight:normal;font-size:26px;font-family:Arial;-inkscape-font-specification:ArialMT;writing-mode:lr-tb;fill:#262626;fill-opacity:1;fill-rule:nonzero;stroke:none"
             id="text134"><tspan
               x="0 14.456 21.658001"
               y="0"
               id="tspan132">1.5</tspan></text>
        </g>
      </g>
      <g
         id="g136">
        <g
           id="g138"
           transform="matrix(-1.7e-7,-4,4,-1.7e-7,104.125,684.49512)">
          <text
             xml:space="preserve"
             transform="translate(-37.5,-6)"
             style="font-variant:normal;font-weight:normal;font-size:28.6px;font-family:Arial;-inkscape-font-specification:ArialMT;writing-mode:lr-tb;fill:#262626;fill-opacity:1;fill-rule:nonzero;stroke:none"
             id="text142"><tspan
               x="0 14.3 23.823799 39.725399 54.025398 60.374599"
               y="0"
               id="tspan140">z-axis</tspan></text>
        </g>
      </g>
      <g
         id="g144"
         transform="matrix(4,0,0,4,1376.8019,924.02234)">
        <path
           d="M 3,0 C 3,-1.6568542 1.6568542,-3 0,-3 -1.6568542,-3 -3,-1.6568542 -3,0 -3,1.6568542 -1.6568542,3 0,3 1.6568542,3 3,1.6568542 3,0 Z"
           style="fill:#000000;fill-opacity:1;fill-rule:nonzero;stroke:none"
           id="path146" />
      </g>
      <g
         id="g148"
         transform="matrix(4,0,0,4,1376.8019,924.02234)">
        <path
           d="m 0,-2.5 c 1.3807119,0 2.5,1.1192881 2.5,2.5 V 0 C 2.5,1.3807119 1.3807119,2.5 0,2.5 -1.3807119,2.5 -2.5,1.3807119 -2.5,0 c 0,-1.3807119 1.1192881,-2.5 2.5,-2.5 z m 0,-1 c -1.9329966,0 -3.5,1.5670034 -3.5,3.5 0,1.9329966 1.5670034,3.5 3.5,3.5 C 1.9329966,3.5 3.5,1.9329966 3.5,0 V 0 C 3.5,-1.9329966 1.9329966,-3.5 0,-3.5 Z"
           style="fill:#000000;fill-opacity:1;fill-rule:nonzero;stroke:none"
           id="path150" />
      </g>
      <g
         id="g152"
         transform="matrix(4,0,0,4,-85.335403,-376.34094)">
        <path
           d="m 109.00002,237.09552 -7.90481,-5.15088"
           style="fill:none;stroke:#262626;stroke-width:1;stroke-linecap:butt;stroke-linejoin:miter;stroke-miterlimit:10;stroke-dasharray:none;stroke-opacity:1"
           id="path154" />
      </g>
      <g
         id="g156"
         transform="matrix(4,0,0,4,1426.6034,931.39832)">
        <path
           d="M 3,0 C 3,-1.6568542 1.6568542,-3 0,-3 -1.6568542,-3 -3,-1.6568542 -3,0 -3,1.6568542 -1.6568542,3 0,3 1.6568542,3 3,1.6568542 3,0 Z"
           style="fill:#000000;fill-opacity:1;fill-rule:nonzero;stroke:none"
           id="path158" />
      </g>
      <g
         id="g160"
         transform="matrix(4,0,0,4,1426.6034,931.39832)">
        <path
           d="m 0,-2.5 c 1.3807119,0 2.5,1.1192881 2.5,2.5 V 0 C 2.5,1.3807119 1.3807119,2.5 0,2.5 -1.3807119,2.5 -2.5,1.3807119 -2.5,0 c 0,-1.3807119 1.1192881,-2.5 2.5,-2.5 z m 0,-1 c -1.9329966,0 -3.5,1.5670034 -3.5,3.5 0,1.9329966 1.5670034,3.5 3.5,3.5 C 1.9329966,3.5 3.5,1.9329966 3.5,0 V 0 C 3.5,-1.9329966 1.9329966,-3.5 0,-3.5 Z"
           style="fill:#000000;fill-opacity:1;fill-rule:nonzero;stroke:none"
           id="path162" />
      </g>
      <g
         id="g164"
         transform="matrix(4,0,0,4,1347.3826,945.42505)">
        <path
           d="M 3,0 C 3,-1.6568542 1.6568542,-3 0,-3 -1.6568542,-3 -3,-1.6568542 -3,0 -3,1.6568542 -1.6568542,3 0,3 1.6568542,3 3,1.6568542 3,0 Z"
           style="fill:#000000;fill-opacity:1;fill-rule:nonzero;stroke:none"
           id="path166" />
      </g>
      <g
         id="g168"
         transform="matrix(4,0,0,4,1347.3826,945.42505)">
        <path
           d="m 0,-2.5 c 1.3807119,0 2.5,1.1192881 2.5,2.5 V 0 C 2.5,1.3807119 1.3807119,2.5 0,2.5 -1.3807119,2.5 -2.5,1.3807119 -2.5,0 c 0,-1.3807119 1.1192881,-2.5 2.5,-2.5 z m 0,-1 c -1.9329966,0 -3.5,1.5670034 -3.5,3.5 0,1.9329966 1.5670034,3.5 3.5,3.5 C 1.9329966,3.5 3.5,1.9329966 3.5,0 V 0 C 3.5,-1.9329966 1.9329966,-3.5 0,-3.5 Z"
           style="fill:#000000;fill-opacity:1;fill-rule:nonzero;stroke:none"
           id="path170" />
      </g>
      <g
         id="g172"
         transform="matrix(4,0,0,4,1427.9631,957.3595)">
        <path
           d="M 3,0 C 3,-1.6568542 1.6568542,-3 0,-3 -1.6568542,-3 -3,-1.6568542 -3,0 -3,1.6568542 -1.6568542,3 0,3 1.6568542,3 3,1.6568542 3,0 Z"
           style="fill:#000000;fill-opacity:1;fill-rule:nonzero;stroke:none"
           id="path174" />
      </g>
      <g
         id="g176"
         transform="matrix(4,0,0,4,1427.9631,957.3595)">
        <path
           d="m 0,-2.5 c 1.3807119,0 2.5,1.1192881 2.5,2.5 V 0 C 2.5,1.3807119 1.3807119,2.5 0,2.5 -1.3807119,2.5 -2.5,1.3807119 -2.5,0 c 0,-1.3807119 1.1192881,-2.5 2.5,-2.5 z m 0,-1 c -1.9329966,0 -3.5,1.5670034 -3.5,3.5 0,1.9329966 1.5670034,3.5 3.5,3.5 C 1.9329966,3.5 3.5,1.9329966 3.5,0 V 0 C 3.5,-1.9329966 1.9329966,-3.5 0,-3.5 Z"
           style="fill:#000000;fill-opacity:1;fill-rule:nonzero;stroke:none"
           id="path178" />
      </g>
      <g
         id="g180"
         transform="matrix(4,0,0,4,1379.0019,966.02856)">
        <path
           d="M 3,0 C 3,-1.6568542 1.6568542,-3 0,-3 -1.6568542,-3 -3,-1.6568542 -3,0 -3,1.6568542 -1.6568542,3 0,3 1.6568542,3 3,1.6568542 3,0 Z"
           style="fill:#000000;fill-opacity:1;fill-rule:nonzero;stroke:none"
           id="path182" />
      </g>
      <g
         id="g184"
         transform="matrix(4,0,0,4,1379.0019,966.02856)">
        <path
           d="m 0,-2.5 c 1.3807119,0 2.5,1.1192881 2.5,2.5 V 0 C 2.5,1.3807119 1.3807119,2.5 0,2.5 -1.3807119,2.5 -2.5,1.3807119 -2.5,0 c 0,-1.3807119 1.1192881,-2.5 2.5,-2.5 z m 0,-1 c -1.9329966,0 -3.5,1.5670034 -3.5,3.5 0,1.9329966 1.5670034,3.5 3.5,3.5 C 1.9329966,3.5 3.5,1.9329966 3.5,0 V 0 C 3.5,-1.9329966 1.9329966,-3.5 0,-3.5 Z"
           style="fill:#000000;fill-opacity:1;fill-rule:nonzero;stroke:none"
           id="path186" />
      </g>
      <g
         id="g188"
         transform="matrix(4,0,0,4,2456.4061,833.03003)">
        <path
           d="M 5,0 C 5,-2.7614238 2.7614238,-5 0,-5 -2.7614238,-5 -5,-2.7614238 -5,0 -5,2.7614238 -2.7614238,5 0,5 2.7614238,5 5,2.7614238 5,0 Z"
           style="fill:#dd5400;fill-opacity:1;fill-rule:nonzero;stroke:none"
           id="path190" />
      </g>
      <g
         id="g192"
         transform="matrix(4,0,0,4,2456.4061,833.03003)">
        <path
           d="m 0,-4.5 c 2.4852814,0 4.5,2.0147186 4.5,4.5 V 0 C 4.5,2.4852814 2.4852814,4.5 0,4.5 -2.4852814,4.5 -4.5,2.4852814 -4.5,0 c 0,-2.4852814 2.0147186,-4.5 4.5,-4.5 z m 0,-1 c -3.0375661,0 -5.5,2.4624339 -5.5,5.5 0,3.0375661 2.4624339,5.5 5.5,5.5 C 3.0375661,5.5 5.5,3.0375661 5.5,0 V 0 C 5.5,-3.0375661 3.0375661,-5.5 0,-5.5 Z"
           style="fill:#dd5400;fill-opacity:1;fill-rule:nonzero;stroke:none"
           id="path194" />
      </g>
      <g
         id="g196"
         transform="matrix(4,0,0,4,-85.335403,-376.34094)">
        <path
           d="m 178.16718,352.44955 -8.80886,3.37964"
           style="fill:none;stroke:#262626;stroke-width:1;stroke-linecap:butt;stroke-linejoin:miter;stroke-miterlimit:10;stroke-dasharray:none;stroke-opacity:1"
           id="path198" />
      </g>
      <g
         id="g200">
        <g
           id="g202"
           transform="matrix(4,0,0,4,557.73985,1060.1577)">
          <text
             xml:space="preserve"
             transform="translate(-15,24)"
             style="font-variant:normal;font-weight:normal;font-size:26px;font-family:Arial;-inkscape-font-specification:ArialMT;writing-mode:lr-tb;fill:#262626;fill-opacity:1;fill-rule:nonzero;stroke:none"
             id="text206"><tspan
               x="0"
               y="0"
               id="tspan204">4</tspan></text>
        </g>
      </g>
      <g
         id="g208"
         transform="matrix(4,0,0,4,-85.335403,-376.34094)">
        <path
           d="M 425.19278,513.41455 760,384.96124"
           style="fill:none;stroke:#262626;stroke-width:1;stroke-linecap:butt;stroke-linejoin:miter;stroke-miterlimit:10;stroke-dasharray:none;stroke-opacity:1"
           id="path210" />
      </g>
      <g
         id="g212"
         transform="matrix(4,0,0,4,-85.335403,-376.34094)">
        <path
           d="m 760,384.96124 7.90485,5.15091"
           style="fill:none;stroke:#262626;stroke-width:1;stroke-linecap:butt;stroke-linejoin:miter;stroke-miterlimit:10;stroke-dasharray:none;stroke-opacity:1"
           id="path214" />
      </g>
      <g
         id="g216">
        <g
           id="g218"
           transform="matrix(4,0,0,4,1656.2345,1086.3035)">
          <text
             xml:space="preserve"
             transform="translate(-37,-4)"
             style="font-variant:normal;font-weight:normal;font-size:16px;font-family:Helvetica;-inkscape-font-specification:Helvetica;writing-mode:lr-tb;fill:#000000;fill-opacity:1;fill-rule:nonzero;stroke:none"
             id="text222"><tspan
               x="0 10.672 23.120001 27.568001"
               y="0"
               id="tspan220">SOI3</tspan></text>
        </g>
      </g>
      <g
         id="g224"
         transform="matrix(4,0,0,4,1656.2345,1086.3035)">
        <path
           d="M 5,0 C 5,-2.7614238 2.7614238,-5 0,-5 -2.7614238,-5 -5,-2.7614238 -5,0 -5,2.7614238 -2.7614238,5 0,5 2.7614238,5 5,2.7614238 5,0 Z"
           style="fill:#54b6ff;fill-opacity:1;fill-rule:nonzero;stroke:none"
           id="path226" />
      </g>
      <g
         id="g228"
         transform="matrix(4,0,0,4,1656.2345,1086.3035)">
        <path
           d="m 0,-4.5 c 2.4852814,0 4.5,2.0147186 4.5,4.5 V 0 C 4.5,2.4852814 2.4852814,4.5 0,4.5 -2.4852814,4.5 -4.5,2.4852814 -4.5,0 c 0,-2.4852814 2.0147186,-4.5 4.5,-4.5 z m 0,-1 c -3.0375661,0 -5.5,2.4624339 -5.5,5.5 0,3.0375661 2.4624339,5.5 5.5,5.5 C 3.0375661,5.5 5.5,3.0375661 5.5,0 V 0 C 5.5,-3.0375661 3.0375661,-5.5 0,-5.5 Z"
           style="fill:#54b6ff;fill-opacity:1;fill-rule:nonzero;stroke:none"
           id="path230" />
      </g>
      <g
         id="g232">
        <g
           id="g234"
           transform="matrix(4,0,0,4,3017.1158,1204.1981)">
          <text
             xml:space="preserve"
             transform="translate(0,24)"
             style="font-variant:normal;font-weight:normal;font-size:26px;font-family:Arial;-inkscape-font-specification:ArialMT;writing-mode:lr-tb;fill:#262626;fill-opacity:1;fill-rule:nonzero;stroke:none"
             id="text238"><tspan
               x="0"
               y="0"
               id="tspan236">3</tspan></text>
        </g>
      </g>
      <g
         id="g240"
         transform="matrix(4,0,0,4,1980.8421,1056.4049)">
        <path
           d="M 5,0 C 5,-2.7614238 2.7614238,-5 0,-5 -2.7614238,-5 -5,-2.7614238 -5,0 -5,2.7614238 -2.7614238,5 0,5 2.7614238,5 5,2.7614238 5,0 Z"
           style="fill:#dd5400;fill-opacity:1;fill-rule:nonzero;stroke:none"
           id="path242" />
      </g>
      <g
         id="g244"
         transform="matrix(4,0,0,4,1980.8421,1056.4049)">
        <path
           d="m 0,-4.5 c 2.4852814,0 4.5,2.0147186 4.5,4.5 V 0 C 4.5,2.4852814 2.4852814,4.5 0,4.5 -2.4852814,4.5 -4.5,2.4852814 -4.5,0 c 0,-2.4852814 2.0147186,-4.5 4.5,-4.5 z m 0,-1 c -3.0375661,0 -5.5,2.4624339 -5.5,5.5 0,3.0375661 2.4624339,5.5 5.5,5.5 C 3.0375661,5.5 5.5,3.0375661 5.5,0 V 0 C 5.5,-3.0375661 3.0375661,-5.5 0,-5.5 Z"
           style="fill:#dd5400;fill-opacity:1;fill-rule:nonzero;stroke:none"
           id="path246" />
      </g>
      <g
         id="g248">
        <g
           id="g250"
           transform="matrix(4,0,0,4,1076.7033,1633.8218)">
          <text
             xml:space="preserve"
             transform="translate(-75,27)"
             style="font-variant:normal;font-weight:normal;font-size:28.6px;font-family:Arial;-inkscape-font-specification:ArialMT;writing-mode:lr-tb;fill:#262626;fill-opacity:1;fill-rule:nonzero;stroke:none"
             id="text254"><tspan
               x="0 14.3 23.823799 39.725399 54.025398 60.374599"
               y="0"
               id="tspan252">y-axis</tspan></text>
        </g>
      </g>
      <g
         id="g256"
         transform="matrix(4,0,0,4,1228.6094,1043.272)">
        <path
           d="M 5,0 C 5,-2.7614238 2.7614238,-5 0,-5 -2.7614238,-5 -5,-2.7614238 -5,0 -5,2.7614238 -2.7614238,5 0,5 2.7614238,5 5,2.7614238 5,0 Z"
           style="fill:#54b6ff;fill-opacity:1;fill-rule:nonzero;stroke:none"
           id="path258" />
      </g>
      <g
         id="g260"
         transform="matrix(4,0,0,4,1228.6094,1043.272)">
        <path
           d="m 0,-4.5 c 2.4852814,0 4.5,2.0147186 4.5,4.5 V 0 C 4.5,2.4852814 2.4852814,4.5 0,4.5 -2.4852814,4.5 -4.5,2.4852814 -4.5,0 c 0,-2.4852814 2.0147186,-4.5 4.5,-4.5 z m 0,-1 c -3.0375661,0 -5.5,2.4624339 -5.5,5.5 0,3.0375661 2.4624339,5.5 5.5,5.5 C 3.0375661,5.5 5.5,3.0375661 5.5,0 V 0 C 5.5,-3.0375661 3.0375661,-5.5 0,-5.5 Z"
           style="fill:#54b6ff;fill-opacity:1;fill-rule:nonzero;stroke:none"
           id="path262" />
      </g>
      <g
         id="g264">
        <g
           id="g266"
           transform="matrix(4,0,0,4,1228.6094,1043.272)">
          <text
             xml:space="preserve"
             transform="translate(-37,-4)"
             style="font-variant:normal;font-weight:normal;font-size:16px;font-family:Helvetica;-inkscape-font-specification:Helvetica;writing-mode:lr-tb;fill:#000000;fill-opacity:1;fill-rule:nonzero;stroke:none"
             id="text270"><tspan
               x="0 10.672 23.120001 27.568001"
               y="0"
               id="tspan268">SOI2</tspan></text>
        </g>
      </g>
      <g
         id="g272"
         transform="matrix(4,0,0,4,-85.335403,-376.34094)">
        <path
           d="m 276.97742,416.83557 -8.80887,3.37961"
           style="fill:none;stroke:#262626;stroke-width:1;stroke-linecap:round;stroke-linejoin:round;stroke-miterlimit:10;stroke-dasharray:none;stroke-opacity:1"
           id="path274" />
      </g>
      <g
         id="g276">
        <g
           id="g278"
           transform="matrix(4,0,0,4,952.98076,1317.7018)">
          <text
             xml:space="preserve"
             transform="translate(-15,24)"
             style="font-variant:normal;font-weight:normal;font-size:26px;font-family:Arial;-inkscape-font-specification:ArialMT;writing-mode:lr-tb;fill:#262626;fill-opacity:1;fill-rule:nonzero;stroke:none"
             id="text282"><tspan
               x="0"
               y="0"
               id="tspan280">3</tspan></text>
        </g>
      </g>
      <g
         id="g284"
         transform="matrix(4,0,0,4,1944.888,1221.0679)">
        <path
           d="M 5,0 C 5,-2.7614238 2.7614238,-5 0,-5 -2.7614238,-5 -5,-2.7614238 -5,0 -5,2.7614238 -2.7614238,5 0,5 2.7614238,5 5,2.7614238 5,0 Z"
           style="fill:#dd5400;fill-opacity:1;fill-rule:nonzero;stroke:none"
           id="path286" />
      </g>
      <g
         id="g288"
         transform="matrix(4,0,0,4,1944.888,1221.0679)">
        <path
           d="m 0,-4.5 c 2.4852814,0 4.5,2.0147186 4.5,4.5 V 0 C 4.5,2.4852814 2.4852814,4.5 0,4.5 -2.4852814,4.5 -4.5,2.4852814 -4.5,0 c 0,-2.4852814 2.0147186,-4.5 4.5,-4.5 z m 0,-1 c -3.0375661,0 -5.5,2.4624339 -5.5,5.5 0,3.0375661 2.4624339,5.5 5.5,5.5 C 3.0375661,5.5 5.5,3.0375661 5.5,0 V 0 C 5.5,-3.0375661 3.0375661,-5.5 0,-5.5 Z"
           style="fill:#dd5400;fill-opacity:1;fill-rule:nonzero;stroke:none"
           id="path290" />
      </g>
      <g
         id="g292"
         transform="matrix(4,0,0,4,2126.9539,1261.166)">
        <path
           d="M 5,0 C 5,-2.7614238 2.7614238,-5 0,-5 -2.7614238,-5 -5,-2.7614238 -5,0 -5,2.7614238 -2.7614238,5 0,5 2.7614238,5 5,2.7614238 5,0 Z"
           style="fill:#dd5400;fill-opacity:1;fill-rule:nonzero;stroke:none"
           id="path294" />
      </g>
      <g
         id="g296"
         transform="matrix(4,0,0,4,2126.9539,1261.166)">
        <path
           d="m 0,-4.5 c 2.4852814,0 4.5,2.0147186 4.5,4.5 V 0 C 4.5,2.4852814 2.4852814,4.5 0,4.5 -2.4852814,4.5 -4.5,2.4852814 -4.5,0 c 0,-2.4852814 2.0147186,-4.5 4.5,-4.5 z m 0,-1 c -3.0375661,0 -5.5,2.4624339 -5.5,5.5 0,3.0375661 2.4624339,5.5 5.5,5.5 C 3.0375661,5.5 5.5,3.0375661 5.5,0 V 0 C 5.5,-3.0375661 3.0375661,-5.5 0,-5.5 Z"
           style="fill:#dd5400;fill-opacity:1;fill-rule:nonzero;stroke:none"
           id="path298" />
      </g>
      <g
         id="g300"
         transform="matrix(4,0,0,4,1529.2475,1188.7468)">
        <path
           d="M 5,0 C 5,-2.7614238 2.7614238,-5 0,-5 -2.7614238,-5 -5,-2.7614238 -5,0 -5,2.7614238 -2.7614238,5 0,5 2.7614238,5 5,2.7614238 5,0 Z"
           style="fill:#54b6ff;fill-opacity:1;fill-rule:nonzero;stroke:none"
           id="path302" />
      </g>
      <g
         id="g304"
         transform="matrix(4,0,0,4,1529.2475,1188.7468)">
        <path
           d="m 0,-4.5 c 2.4852814,0 4.5,2.0147186 4.5,4.5 V 0 C 4.5,2.4852814 2.4852814,4.5 0,4.5 -2.4852814,4.5 -4.5,2.4852814 -4.5,0 c 0,-2.4852814 2.0147186,-4.5 4.5,-4.5 z m 0,-1 c -3.0375661,0 -5.5,2.4624339 -5.5,5.5 0,3.0375661 2.4624339,5.5 5.5,5.5 C 3.0375661,5.5 5.5,3.0375661 5.5,0 V 0 C 5.5,-3.0375661 3.0375661,-5.5 0,-5.5 Z"
           style="fill:#54b6ff;fill-opacity:1;fill-rule:nonzero;stroke:none"
           id="path306" />
      </g>
      <g
         id="g308">
        <g
           id="g310"
           transform="matrix(4,0,0,4,1529.2475,1188.7468)">
          <text
             xml:space="preserve"
             transform="translate(-37,-4)"
             style="font-variant:normal;font-weight:normal;font-size:16px;font-family:Helvetica;-inkscape-font-specification:Helvetica;writing-mode:lr-tb;fill:#000000;fill-opacity:1;fill-rule:nonzero;stroke:none"
             id="text314"><tspan
               x="0 10.672 23.120001 27.568001"
               y="0"
               id="tspan312">SOI1</tspan></text>
        </g>
      </g>
      <g
         id="g316"
         transform="matrix(4,0,0,4,-85.335403,-376.34094)">
        <path
           d="m 631.22797,434.36636 7.90484,5.15091"
           style="fill:none;stroke:#262626;stroke-width:1;stroke-linecap:butt;stroke-linejoin:miter;stroke-miterlimit:10;stroke-dasharray:none;stroke-opacity:1"
           id="path318" />
      </g>
      <g
         id="g320">
        <g
           id="g322"
           transform="matrix(4,0,0,4,2502.0279,1401.8186)">
          <text
             xml:space="preserve"
             transform="translate(0,24)"
             style="font-variant:normal;font-weight:normal;font-size:26px;font-family:Arial;-inkscape-font-specification:ArialMT;writing-mode:lr-tb;fill:#262626;fill-opacity:1;fill-rule:nonzero;stroke:none"
             id="text326"><tspan
               x="0"
               y="0"
               id="tspan324">2</tspan></text>
        </g>
      </g>
      <g
         id="g328">
        <g
           id="g330"
           transform="matrix(4,0,0,4,2172.7825,1711.4037)">
          <text
             xml:space="preserve"
             transform="translate(0,27)"
             style="font-variant:normal;font-weight:normal;font-size:28.6px;font-family:Arial;-inkscape-font-specification:ArialMT;writing-mode:lr-tb;fill:#262626;fill-opacity:1;fill-rule:nonzero;stroke:none"
             id="text334"><tspan
               x="0 14.3 23.823799 39.725399 54.025398 60.374599"
               y="0"
               id="tspan332">x-axis</tspan></text>
        </g>
      </g>
      <g
         id="g336"
         transform="matrix(4,0,0,4,-85.335403,-376.34094)">
        <path
           d="m 375.78766,481.22156 -8.80887,3.37964"
           style="fill:none;stroke:#262626;stroke-width:1;stroke-linecap:square;stroke-linejoin:round;stroke-miterlimit:10;stroke-dasharray:none;stroke-opacity:1"
           id="path338" />
      </g>
      <g
         id="g340"
         transform="matrix(4,0,0,4,-85.335403,-376.34094)">
        <path
           d="m 502.45596,483.77148 7.90485,5.15091"
           style="fill:none;stroke:#262626;stroke-width:1;stroke-linecap:square;stroke-linejoin:round;stroke-miterlimit:10;stroke-dasharray:none;stroke-opacity:1"
           id="path342" />
      </g>
      <g
         id="g344">
        <g
           id="g346"
           transform="matrix(4,0,0,4,1348.2217,1575.2457)">
          <text
             xml:space="preserve"
             transform="translate(-15,24)"
             style="font-variant:normal;font-weight:normal;font-size:26px;font-family:Arial;-inkscape-font-specification:ArialMT;writing-mode:lr-tb;fill:#262626;fill-opacity:1;fill-rule:nonzero;stroke:none"
             id="text350"><tspan
               x="0"
               y="0"
               id="tspan348">2</tspan></text>
        </g>
      </g>
      <g
         id="g352">
        <g
           id="g354"
           transform="matrix(4,0,0,4,1986.9397,1599.4391)">
          <text
             xml:space="preserve"
             transform="translate(0,24)"
             style="font-variant:normal;font-weight:normal;font-size:26px;font-family:Arial;-inkscape-font-specification:ArialMT;writing-mode:lr-tb;fill:#262626;fill-opacity:1;fill-rule:nonzero;stroke:none"
             id="text358"><tspan
               x="0"
               y="0"
               id="tspan356">1</tspan></text>
        </g>
      </g>
      <g
         id="g360"
         transform="matrix(4,0,0,4,1678.9292,1499.5846)">
        <path
           d="M 5,0 C 5,-2.7614238 2.7614238,-5 0,-5 -2.7614238,-5 -5,-2.7614238 -5,0 -5,2.7614238 -2.7614238,5 0,5 2.7614238,5 5,2.7614238 5,0 Z"
           style="fill:#dd5400;fill-opacity:1;fill-rule:nonzero;stroke:none"
           id="path362" />
      </g>
      <g
         id="g364"
         transform="matrix(4,0,0,4,1678.9292,1499.5846)">
        <path
           d="m 0,-4.5 c 2.4852814,0 4.5,2.0147186 4.5,4.5 V 0 C 4.5,2.4852814 2.4852814,4.5 0,4.5 -2.4852814,4.5 -4.5,2.4852814 -4.5,0 c 0,-2.4852814 2.0147186,-4.5 4.5,-4.5 z m 0,-1 c -3.0375661,0 -5.5,2.4624339 -5.5,5.5 0,3.0375661 2.4624339,5.5 5.5,5.5 C 3.0375661,5.5 5.5,3.0375661 5.5,0 V 0 C 5.5,-3.0375661 3.0375661,-5.5 0,-5.5 Z"
           style="fill:#dd5400;fill-opacity:1;fill-rule:nonzero;stroke:none"
           id="path366" />
      </g>
      <g
         id="g368"
         transform="matrix(4,0,0,4,1924.4884,1221.3826)">
        <path
           d="M 5,0 C 5,-2.7614238 2.7614238,-5 0,-5 -2.7614238,-5 -5,-2.7614238 -5,0 -5,2.7614238 -2.7614238,5 0,5 2.7614238,5 5,2.7614238 5,0 Z"
           style="fill:#dd5400;fill-opacity:1;fill-rule:nonzero;stroke:none"
           id="path370" />
      </g>
      <g
         id="g372"
         transform="matrix(4,0,0,4,1924.4884,1221.3826)">
        <path
           d="m 0,-4.5 c 2.4852814,0 4.5,2.0147186 4.5,4.5 V 0 C 4.5,2.4852814 2.4852814,4.5 0,4.5 -2.4852814,4.5 -4.5,2.4852814 -4.5,0 c 0,-2.4852814 2.0147186,-4.5 4.5,-4.5 z m 0,-1 c -3.0375661,0 -5.5,2.4624339 -5.5,5.5 0,3.0375661 2.4624339,5.5 5.5,5.5 C 3.0375661,5.5 5.5,3.0375661 5.5,0 V 0 C 5.5,-3.0375661 3.0375661,-5.5 0,-5.5 Z"
           style="fill:#dd5400;fill-opacity:1;fill-rule:nonzero;stroke:none"
           id="path374" />
      </g>
      <g
         id="g376"
         transform="matrix(4,0,0,4,1536.3875,1457.1273)">
        <path
           d="M 5,0 C 5,-2.7614238 2.7614238,-5 0,-5 -2.7614238,-5 -5,-2.7614238 -5,0 -5,2.7614238 -2.7614238,5 0,5 2.7614238,5 5,2.7614238 5,0 Z"
           style="fill:#dd5400;fill-opacity:1;fill-rule:nonzero;stroke:none"
           id="path378" />
      </g>
      <g
         id="g380"
         transform="matrix(4,0,0,4,1536.3875,1457.1273)">
        <path
           d="m 0,-4.5 c 2.4852814,0 4.5,2.0147186 4.5,4.5 V 0 C 4.5,2.4852814 2.4852814,4.5 0,4.5 -2.4852814,4.5 -4.5,2.4852814 -4.5,0 c 0,-2.4852814 2.0147186,-4.5 4.5,-4.5 z m 0,-1 c -3.0375661,0 -5.5,2.4624339 -5.5,5.5 0,3.0375661 2.4624339,5.5 5.5,5.5 C 3.0375661,5.5 5.5,3.0375661 5.5,0 V 0 C 5.5,-3.0375661 3.0375661,-5.5 0,-5.5 Z"
           style="fill:#dd5400;fill-opacity:1;fill-rule:nonzero;stroke:none"
           id="path382" />
      </g>
      <g
         id="g384"
         transform="matrix(4,0,0,4,-85.335403,-376.34094)">
        <path
           d="M 778,189 V 100 H 503 v 89 z"
           style="fill:#ffffff;fill-opacity:1;fill-rule:nonzero;stroke:none"
           id="path386" />
      </g>
      <g
         id="g388">
        <g
           id="g390"
           transform="matrix(4,0,0,4,2209.1783,90.031952)">
          <text
             xml:space="preserve"
             transform="translate(0,8.5)"
             style="font-variant:normal;font-weight:normal;font-size:23.4px;font-family:Arial;-inkscape-font-specification:ArialMT;writing-mode:lr-tb;fill:#000000;fill-opacity:1;fill-rule:nonzero;stroke:none"
             id="text394"><tspan
               x="0 19.492201 24.687 36.387001 44.179199 57.189602 70.199997 83.210403 96.220802 109.2312 122.2416 128.7234 144.3078 152.10001 159.8922 172.9026"
               y="0"
               id="tspan392">Microphone Array</tspan></text>
        </g>
      </g>
      <g
         id="g396"
         transform="matrix(4,0,0,4,2070.9268,90.031952)">
        <path
           d="M 3,0 C 3,-1.6568542 1.6568542,-3 0,-3 -1.6568542,-3 -3,-1.6568542 -3,0 -3,1.6568542 -1.6568542,3 0,3 1.6568542,3 3,1.6568542 3,0 Z"
           style="fill:#000000;fill-opacity:1;fill-rule:nonzero;stroke:none"
           id="path398" />
      </g>
      <g
         id="g400"
         transform="matrix(4,0,0,4,2070.9268,90.031952)">
        <path
           d="m 0,-2.5 c 1.3807119,0 2.5,1.1192881 2.5,2.5 V 0 C 2.5,1.3807119 1.3807119,2.5 0,2.5 -1.3807119,2.5 -2.5,1.3807119 -2.5,0 c 0,-1.3807119 1.1192881,-2.5 2.5,-2.5 z m 0,-1 c -1.9329966,0 -3.5,1.5670034 -3.5,3.5 0,1.9329966 1.5670034,3.5 3.5,3.5 C 1.9329966,3.5 3.5,1.9329966 3.5,0 V 0 C 3.5,-1.9329966 1.9329966,-3.5 0,-3.5 Z"
           style="fill:#000000;fill-opacity:1;fill-rule:nonzero;stroke:none"
           id="path402" />
      </g>
      <g
         id="g404">
        <g
           id="g406"
           transform="matrix(4,0,0,4,2209.1783,201.65906)">
          <text
             xml:space="preserve"
             transform="translate(0,8.5)"
             style="font-variant:normal;font-weight:normal;font-size:23.4px;font-family:Arial;-inkscape-font-specification:ArialMT;writing-mode:lr-tb;fill:#000000;fill-opacity:1;fill-rule:nonzero;stroke:none"
             id="text410"><tspan
               x="0 15.5844 28.594801 41.605202 49.3974 61.097401 74.107803 85.8078 93.599998 106.6104 113.0922 120.8844 126.0792 139.0896 145.5714 158.5818 166.37399 179.3844 191.0844"
               y="0"
               id="tspan408">Sources-of-interest</tspan></text>
        </g>
      </g>
      <g
         id="g412"
         transform="matrix(4,0,0,4,2070.9268,201.65906)">
        <path
           d="M 5,0 C 5,-2.7614238 2.7614238,-5 0,-5 -2.7614238,-5 -5,-2.7614238 -5,0 -5,2.7614238 -2.7614238,5 0,5 2.7614238,5 5,2.7614238 5,0 Z"
           style="fill:#54b6ff;fill-opacity:1;fill-rule:nonzero;stroke:none"
           id="path414" />
      </g>
      <g
         id="g416"
         transform="matrix(4,0,0,4,2070.9268,201.65906)">
        <path
           d="m 0,-4.5 c 2.4852814,0 4.5,2.0147186 4.5,4.5 V 0 C 4.5,2.4852814 2.4852814,4.5 0,4.5 -2.4852814,4.5 -4.5,2.4852814 -4.5,0 c 0,-2.4852814 2.0147186,-4.5 4.5,-4.5 z m 0,-1 c -3.0375661,0 -5.5,2.4624339 -5.5,5.5 0,3.0375661 2.4624339,5.5 5.5,5.5 C 3.0375661,5.5 5.5,3.0375661 5.5,0 V 0 C 5.5,-3.0375661 3.0375661,-5.5 0,-5.5 Z"
           style="fill:#54b6ff;fill-opacity:1;fill-rule:nonzero;stroke:none"
           id="path418" />
      </g>
      <g
         id="g420">
        <g
           id="g422"
           transform="matrix(4,0,0,4,2209.1783,313.28619)">
          <text
             xml:space="preserve"
             transform="translate(0,8.5)"
             style="font-variant:normal;font-weight:normal;font-size:23.4px;font-family:Arial;-inkscape-font-specification:ArialMT;writing-mode:lr-tb;fill:#000000;fill-opacity:1;fill-rule:nonzero;stroke:none"
             id="text426"><tspan
               x="0 6.4818001 19.492201 25.974001 38.984402 46.7766 53.2584 66.268799 74.060997 79.255798 92.266197 105.2766 111.7584 123.4584 136.4688 149.4792 157.27139 168.97141 181.9818"
               y="0"
               id="tspan424">Interfering sources</tspan></text>
        </g>
      </g>
      <g
         id="g428"
         transform="matrix(4,0,0,4,2070.9268,313.28619)">
        <path
           d="M 5,0 C 5,-2.7614238 2.7614238,-5 0,-5 -2.7614238,-5 -5,-2.7614238 -5,0 -5,2.7614238 -2.7614238,5 0,5 2.7614238,5 5,2.7614238 5,0 Z"
           style="fill:#dd5400;fill-opacity:1;fill-rule:nonzero;stroke:none"
           id="path430" />
      </g>
      <g
         id="g432"
         transform="matrix(4,0,0,4,2070.9268,313.28619)">
        <path
           d="m 0,-4.5 c 2.4852814,0 4.5,2.0147186 4.5,4.5 V 0 C 4.5,2.4852814 2.4852814,4.5 0,4.5 -2.4852814,4.5 -4.5,2.4852814 -4.5,0 c 0,-2.4852814 2.0147186,-4.5 4.5,-4.5 z m 0,-1 c -3.0375661,0 -5.5,2.4624339 -5.5,5.5 0,3.0375661 2.4624339,5.5 5.5,5.5 C 3.0375661,5.5 5.5,3.0375661 5.5,0 V 0 C 5.5,-3.0375661 3.0375661,-5.5 0,-5.5 Z"
           style="fill:#dd5400;fill-opacity:1;fill-rule:nonzero;stroke:none"
           id="path434" />
      </g>
      <g
         id="g436"
         transform="matrix(4,0,0,4,-85.335403,-376.34094)">
        <path
           d="m 503,189 v -89 h 275 v 89 z"
           style="fill:none;stroke:#262626;stroke-width:1;stroke-linecap:butt;stroke-linejoin:miter;stroke-miterlimit:10;stroke-dasharray:none;stroke-opacity:1"
           id="path438" />
      </g>
    </g>
  </g>
</svg>
